<?xml version="1.0" encoding="UTF-8" standalone="no"?>
<!DOCTYPE svg PUBLIC "-//W3C//DTD SVG 1.1//EN"
 "http://www.w3.org/Graphics/SVG/1.1/DTD/svg11.dtd">
<!-- Generated by graphviz version 2.43.0 (0)
 -->
<!-- Title: browser_app Pages: 1 -->
<svg width="849pt" height="344pt"
 viewBox="0.00 0.00 849.00 344.00" xmlns="http://www.w3.org/2000/svg" xmlns:xlink="http://www.w3.org/1999/xlink">
<g id="graph0" class="graph" transform="scale(1 1) rotate(0) translate(4 340)">
<title>browser_app</title>
<polygon fill="white" stroke="transparent" points="-4,4 -4,-340 845,-340 845,4 -4,4"/>
<!-- UI_Loader -->
<g id="node1" class="node">
<title>UI_Loader</title>
<polygon fill="none" stroke="black" points="0,-137.5 0,-198.5 251,-198.5 251,-137.5 0,-137.5"/>
<text text-anchor="middle" x="125.5" y="-183.3" font-family="Times,serif" font-size="14.00">FormLoader (Загрузчик формы)</text>
<polyline fill="none" stroke="black" points="0,-175.5 251,-175.5 "/>
<polyline fill="none" stroke="black" points="0,-175.5 251,-175.5 "/>
<text text-anchor="middle" x="125.5" y="-160.3" font-family="Times,serif" font-size="14.00">+ loadForm()</text>
<text text-anchor="middle" x="125.5" y="-145.3" font-family="Times,serif" font-size="14.00">+ render()</text>
</g>
<!-- Settings -->
<g id="node2" class="node">
<title>Settings</title>
<polygon fill="none" stroke="black" points="357,-236.5 357,-335.5 528,-335.5 528,-236.5 357,-236.5"/>
<text text-anchor="middle" x="442.5" y="-320.3" font-family="Times,serif" font-size="14.00">Settings (Настройки)</text>
<polyline fill="none" stroke="black" points="357,-312.5 528,-312.5 "/>
<text text-anchor="middle" x="442.5" y="-297.3" font-family="Times,serif" font-size="14.00">+ theme: String</text>
<text text-anchor="middle" x="442.5" y="-282.3" font-family="Times,serif" font-size="14.00">+ accessibility: Map</text>
<polyline fill="none" stroke="black" points="357,-274.5 528,-274.5 "/>
<text text-anchor="middle" x="442.5" y="-259.3" font-family="Times,serif" font-size="14.00">+ loadSettings()</text>
<text text-anchor="middle" x="442.5" y="-244.3" font-family="Times,serif" font-size="14.00">+ saveSettings()</text>
</g>
<!-- UI_Loader&#45;&gt;Settings -->
<g id="edge2" class="edge">
<title>UI_Loader&#45;&gt;Settings</title>
<path fill="none" stroke="black" stroke-dasharray="5,2" d="M208.03,-198.54C250.57,-214.48 302.84,-234.06 347.13,-250.65"/>
<polygon fill="black" stroke="black" points="346.15,-254.02 356.74,-254.25 348.6,-247.46 346.15,-254.02"/>
<text text-anchor="middle" x="285.5" y="-233.8" font-family="Times,serif" font-size="14.00">uses</text>
</g>
<!-- SyncManager -->
<g id="node3" class="node">
<title>SyncManager</title>
<polygon fill="none" stroke="black" points="320,-118.5 320,-217.5 565,-217.5 565,-118.5 320,-118.5"/>
<text text-anchor="middle" x="442.5" y="-202.3" font-family="Times,serif" font-size="14.00">SyncManager (Синхронизация)</text>
<polyline fill="none" stroke="black" points="320,-194.5 565,-194.5 "/>
<text text-anchor="middle" x="442.5" y="-179.3" font-family="Times,serif" font-size="14.00">+ dbConnection: DBConnection</text>
<text text-anchor="middle" x="442.5" y="-164.3" font-family="Times,serif" font-size="14.00">+ userData: UserData</text>
<polyline fill="none" stroke="black" points="320,-156.5 565,-156.5 "/>
<text text-anchor="middle" x="442.5" y="-141.3" font-family="Times,serif" font-size="14.00">+ sync()</text>
<text text-anchor="middle" x="442.5" y="-126.3" font-family="Times,serif" font-size="14.00">+ backup()</text>
</g>
<!-- UI_Loader&#45;&gt;SyncManager -->
<g id="edge3" class="edge">
<title>UI_Loader&#45;&gt;SyncManager</title>
<path fill="none" stroke="black" stroke-dasharray="5,2" d="M251.45,-168C270.61,-168 290.44,-168 309.75,-168"/>
<polygon fill="black" stroke="black" points="309.79,-171.5 319.79,-168 309.79,-164.5 309.79,-171.5"/>
<text text-anchor="middle" x="285.5" y="-171.8" font-family="Times,serif" font-size="14.00">uses</text>
</g>
<!-- Page -->
<g id="node5" class="node">
<title>Page</title>
<polygon fill="none" stroke="black" points="363.5,-0.5 363.5,-99.5 521.5,-99.5 521.5,-0.5 363.5,-0.5"/>
<text text-anchor="middle" x="442.5" y="-84.3" font-family="Times,serif" font-size="14.00">Page</text>
<polyline fill="none" stroke="black" points="363.5,-76.5 521.5,-76.5 "/>
<text text-anchor="middle" x="442.5" y="-61.3" font-family="Times,serif" font-size="14.00">+ url: String</text>
<text text-anchor="middle" x="442.5" y="-46.3" font-family="Times,serif" font-size="14.00">+ content: String</text>
<polyline fill="none" stroke="black" points="363.5,-38.5 521.5,-38.5 "/>
<text text-anchor="middle" x="442.5" y="-23.3" font-family="Times,serif" font-size="14.00">+ save()</text>
<text text-anchor="middle" x="442.5" y="-8.3" font-family="Times,serif" font-size="14.00">+ downloadAssets()</text>
</g>
<!-- UI_Loader&#45;&gt;Page -->
<g id="edge1" class="edge">
<title>UI_Loader&#45;&gt;Page</title>
<path fill="none" stroke="black" d="M208.03,-137.46C255.88,-119.53 316.04,-97 363.3,-79.29"/>
<text text-anchor="middle" x="285.5" y="-115.8" font-family="Times,serif" font-size="14.00">1</text>
</g>
<!-- Account -->
<g id="node4" class="node">
<title>Account</title>
<polygon fill="none" stroke="black" points="649,-118.5 649,-217.5 841,-217.5 841,-118.5 649,-118.5"/>
<text text-anchor="middle" x="745" y="-202.3" font-family="Times,serif" font-size="14.00">Account (Аккаунт)</text>
<polyline fill="none" stroke="black" points="649,-194.5 841,-194.5 "/>
<text text-anchor="middle" x="745" y="-179.3" font-family="Times,serif" font-size="14.00">+ username: String</text>
<text text-anchor="middle" x="745" y="-164.3" font-family="Times,serif" font-size="14.00">+ passwordHash: String</text>
<polyline fill="none" stroke="black" points="649,-156.5 841,-156.5 "/>
<text text-anchor="middle" x="745" y="-141.3" font-family="Times,serif" font-size="14.00">+ login()</text>
<text text-anchor="middle" x="745" y="-126.3" font-family="Times,serif" font-size="14.00">+ logout()</text>
</g>
<!-- SyncManager&#45;&gt;Account -->
<g id="edge4" class="edge">
<title>SyncManager&#45;&gt;Account</title>
<path fill="none" stroke="black" d="M565.29,-168C593.11,-168 622.28,-168 648.8,-168"/>
<text text-anchor="middle" x="607" y="-171.8" font-family="Times,serif" font-size="14.00">1..1</text>
</g>
<!-- DownloadManager -->
<g id="node6" class="node">
<title>DownloadManager</title>
<polygon fill="none" stroke="black" points="667,-33.5 667,-94.5 823,-94.5 823,-33.5 667,-33.5"/>
<text text-anchor="middle" x="745" y="-79.3" font-family="Times,serif" font-size="14.00">DownloadManager</text>
<polyline fill="none" stroke="black" points="667,-71.5 823,-71.5 "/>
<polyline fill="none" stroke="black" points="667,-71.5 823,-71.5 "/>
<text text-anchor="middle" x="745" y="-56.3" font-family="Times,serif" font-size="14.00">+ enqueue(file)</text>
<text text-anchor="middle" x="745" y="-41.3" font-family="Times,serif" font-size="14.00">+ startDownloads()</text>
</g>
<!-- SyncManager&#45;&gt;DownloadManager -->
<g id="edge6" class="edge">
<title>SyncManager&#45;&gt;DownloadManager</title>
<path fill="none" stroke="black" stroke-dasharray="5,2" d="M565.29,-125.85C596.13,-115.18 628.63,-103.93 657.34,-93.99"/>
<polygon fill="black" stroke="black" points="658.62,-97.25 666.92,-90.68 656.33,-90.64 658.62,-97.25"/>
<text text-anchor="middle" x="607" y="-122.8" font-family="Times,serif" font-size="14.00">coords</text>
</g>
<!-- Page&#45;&gt;DownloadManager -->
<g id="edge5" class="edge">
<title>Page&#45;&gt;DownloadManager</title>
<path fill="none" stroke="black" d="M521.67,-53.64C566.36,-55.72 622.2,-58.33 666.74,-60.4"/>
<text text-anchor="middle" x="607" y="-61.8" font-family="Times,serif" font-size="14.00">0..*</text>
</g>
</g>
</svg>
