<?xml version="1.0" encoding="UTF-8" standalone="no"?>
<!DOCTYPE svg PUBLIC "-//W3C//DTD SVG 1.1//EN"
 "http://www.w3.org/Graphics/SVG/1.1/DTD/svg11.dtd">
<!-- Generated by graphviz version 2.43.0 (0)
 -->
<!-- Title: company Pages: 1 -->
<svg width="773pt" height="231pt"
 viewBox="0.00 0.00 773.00 230.50" xmlns="http://www.w3.org/2000/svg" xmlns:xlink="http://www.w3.org/1999/xlink">
<g id="graph0" class="graph" transform="scale(1 1) rotate(0) translate(4 226.5)">
<title>company</title>
<polygon fill="white" stroke="transparent" points="-4,4 -4,-226.5 769,-226.5 769,4 -4,4"/>
<!-- Company -->
<g id="node1" class="node">
<title>Company</title>
<polygon fill="none" stroke="black" points="0,-31 0,-92 230,-92 230,-31 0,-31"/>
<text text-anchor="middle" x="115" y="-76.8" font-family="Times,serif" font-size="14.00">Компания</text>
<polyline fill="none" stroke="black" points="0,-69 230,-69 "/>
<text text-anchor="middle" x="115" y="-53.8" font-family="Times,serif" font-size="14.00">+ name: String</text>
<text text-anchor="middle" x="115" y="-38.8" font-family="Times,serif" font-size="14.00">+ registrationNumber: String</text>
<polyline fill="none" stroke="black" points="0,-31 230,-31 "/>
</g>
<!-- Department -->
<g id="node2" class="node">
<title>Department</title>
<polygon fill="none" stroke="black" points="306,-104 306,-165 460,-165 460,-104 306,-104"/>
<text text-anchor="middle" x="383" y="-149.8" font-family="Times,serif" font-size="14.00">Отдел</text>
<polyline fill="none" stroke="black" points="306,-142 460,-142 "/>
<text text-anchor="middle" x="383" y="-126.8" font-family="Times,serif" font-size="14.00">+ name: String</text>
<text text-anchor="middle" x="383" y="-111.8" font-family="Times,serif" font-size="14.00">+ manager: Person</text>
<polyline fill="none" stroke="black" points="306,-104 460,-104 "/>
</g>
<!-- Company&#45;&gt;Department -->
<g id="edge1" class="edge">
<title>Company&#45;&gt;Department</title>
<path fill="none" stroke="black" d="M227.27,-92.04C253.75,-99.3 281.41,-106.89 305.9,-113.61"/>
<text text-anchor="middle" x="260.5" y="-108.3" font-family="Times,serif" font-size="14.00">1..*</text>
</g>
<!-- Headquarter -->
<g id="node4" class="node">
<title>Headquarter</title>
<polygon fill="none" stroke="black" points="291,-0.5 291,-84.5 475,-84.5 475,-0.5 291,-0.5"/>
<text text-anchor="middle" x="383" y="-69.3" font-family="Times,serif" font-size="14.00">Штаб&#45;квартира</text>
<polyline fill="none" stroke="black" points="291,-61.5 475,-61.5 "/>
<text text-anchor="middle" x="383" y="-46.3" font-family="Times,serif" font-size="14.00">+ address: String</text>
<text text-anchor="middle" x="383" y="-31.3" font-family="Times,serif" font-size="14.00">+ ceo: Person</text>
<polyline fill="none" stroke="black" points="291,-23.5 475,-23.5 "/>
<text text-anchor="middle" x="383" y="-8.3" font-family="Times,serif" font-size="14.00">+ getContacts(): String</text>
</g>
<!-- Company&#45;&gt;Headquarter -->
<g id="edge3" class="edge">
<title>Company&#45;&gt;Headquarter</title>
<path fill="none" stroke="black" d="M230.35,-53.33C250.49,-51.89 271.21,-50.41 290.61,-49.03"/>
<text text-anchor="middle" x="260.5" y="-56.3" font-family="Times,serif" font-size="14.00">1</text>
</g>
<!-- Office -->
<g id="node3" class="node">
<title>Office</title>
<polygon fill="none" stroke="black" points="579,-161 579,-222 722,-222 722,-161 579,-161"/>
<text text-anchor="middle" x="650.5" y="-206.8" font-family="Times,serif" font-size="14.00">Офис</text>
<polyline fill="none" stroke="black" points="579,-199 722,-199 "/>
<text text-anchor="middle" x="650.5" y="-183.8" font-family="Times,serif" font-size="14.00">+ address: String</text>
<text text-anchor="middle" x="650.5" y="-168.8" font-family="Times,serif" font-size="14.00">+ phone: String</text>
<polyline fill="none" stroke="black" points="579,-161 722,-161 "/>
</g>
<!-- Department&#45;&gt;Office -->
<g id="edge2" class="edge">
<title>Department&#45;&gt;Office</title>
<path fill="none" stroke="black" d="M460.08,-150.83C497.47,-158.86 542.24,-168.47 578.87,-176.34"/>
<text text-anchor="middle" x="505.5" y="-166.3" font-family="Times,serif" font-size="14.00">1</text>
</g>
<!-- Person -->
<g id="node5" class="node">
<title>Person</title>
<polygon fill="none" stroke="black" points="536,-13 536,-142 765,-142 765,-13 536,-13"/>
<text text-anchor="middle" x="650.5" y="-126.8" font-family="Times,serif" font-size="14.00">Person (Сотрудник)</text>
<polyline fill="none" stroke="black" points="536,-119 765,-119 "/>
<text text-anchor="middle" x="650.5" y="-103.8" font-family="Times,serif" font-size="14.00">+ id: int</text>
<text text-anchor="middle" x="650.5" y="-88.8" font-family="Times,serif" font-size="14.00">+ fullName: String</text>
<text text-anchor="middle" x="650.5" y="-73.8" font-family="Times,serif" font-size="14.00">+ position: String</text>
<text text-anchor="middle" x="650.5" y="-58.8" font-family="Times,serif" font-size="14.00">+ salary: float</text>
<polyline fill="none" stroke="black" points="536,-51 765,-51 "/>
<text text-anchor="middle" x="650.5" y="-35.8" font-family="Times,serif" font-size="14.00">+ getInfo(): String</text>
<text text-anchor="middle" x="650.5" y="-20.8" font-family="Times,serif" font-size="14.00">+ updatePosition(pos: String)</text>
</g>
<!-- Department&#45;&gt;Person -->
<g id="edge4" class="edge">
<title>Department&#45;&gt;Person</title>
<path fill="none" stroke="black" d="M460.08,-118.17C483.68,-113.1 510.22,-107.4 535.79,-101.91"/>
<text text-anchor="middle" x="505.5" y="-112.3" font-family="Times,serif" font-size="14.00">0..*</text>
</g>
</g>
</svg>
